<svg width="46" height="46" viewBox="0 0 46 46" fill="none" xmlns="http://www.w3.org/2000/svg">
<rect width="46" height="46" rx="4" fill="#265D9D"/>
<path d="M11.8639 4.404H17.3239C18.5025 4.404 19.2652 4.59466 19.6119 4.976C19.9932 5.35733 20.1839 6.15467 20.1839 7.368V42H14.7239C13.5452 42 12.7652 41.8093 12.3839 41.428C12.0372 41.0467 11.8639 40.2493 11.8639 39.036V4.404ZM25.7999 26.452H31.7279C32.7679 26.452 33.5132 26.7467 33.9639 27.336C34.4145 27.8907 34.6399 28.8093 34.6399 30.092V42H27.6719C27.1172 42 26.6665 41.8093 26.3199 41.428C25.9732 41.0467 25.7999 40.544 25.7999 39.92V26.452ZM25.9559 4.404H31.9359C32.9412 4.404 33.5825 4.59466 33.8599 4.976C34.1372 5.35733 34.2759 6.15467 34.2759 7.368V18.392C34.2759 20.472 33.8945 22.032 33.1319 23.072C32.4039 24.0773 30.9132 24.58 28.6599 24.58H22.2639V19.64H24.5519C25.1759 19.64 25.5572 19.536 25.6959 19.328C25.8692 19.0853 25.9559 18.6867 25.9559 18.132V4.404Z" fill="#FFA800"/>
</svg>
